<svg width="1095" height="270" viewBox="0 0 1095 270" fill="none" xmlns="http://www.w3.org/2000/svg">
<path d="M62.3483 93.9971V23.9171H75.9803V93.9971H62.3483ZM85.9807 55.5011V48.0131H88.2847C90.1407 48.0131 91.6127 47.7251 92.7007 47.1491C93.7887 46.5731 94.5887 45.6131 95.1007 44.2691C95.6127 42.8611 95.8687 41.0051 95.8687 38.7011V31.5971L98.6527 36.9731C98.2047 37.2931 97.5647 37.5811 96.7327 37.8371C95.9007 38.0291 95.0367 38.1251 94.1407 38.1251C92.0287 38.1251 90.2687 37.4851 88.8607 36.2051C87.4527 34.8611 86.7487 33.0371 86.7487 30.7331C86.7487 28.5571 87.4207 26.7331 88.7647 25.2611C90.1087 23.7251 92.0287 22.9571 94.5247 22.9571C96.1247 22.9571 97.5967 23.3411 98.9407 24.1091C100.349 24.8131 101.469 26.0931 102.301 27.9491C103.133 29.7411 103.549 32.2371 103.549 35.4371V37.0691C103.549 41.6131 102.909 45.2291 101.629 47.9171C100.413 50.6051 98.6207 52.5571 96.2527 53.7731C93.8847 54.9251 91.0047 55.5011 87.6127 55.5011H85.9807ZM111.684 93.9971V41.8691H122.244V64.2371H121.284C121.284 58.9891 121.956 54.6051 123.3 51.0851C124.644 47.5011 126.628 44.8131 129.252 43.0211C131.94 41.1651 135.268 40.2371 139.236 40.2371H139.812C143.844 40.2371 147.172 41.1651 149.796 43.0211C152.484 44.8131 154.468 47.5011 155.748 51.0851C157.092 54.6051 157.764 58.9891 157.764 64.2371H154.404C154.404 58.9891 155.076 54.6051 156.42 51.0851C157.828 47.5011 159.844 44.8131 162.468 43.0211C165.156 41.1651 168.484 40.2371 172.452 40.2371H173.028C177.06 40.2371 180.42 41.1651 183.108 43.0211C185.796 44.8131 187.812 47.5011 189.156 51.0851C190.564 54.6051 191.268 58.9891 191.268 64.2371V93.9971H177.924V62.9891C177.924 59.7251 177.092 57.1331 175.428 55.2131C173.764 53.2291 171.396 52.2371 168.324 52.2371C165.252 52.2371 162.788 53.2611 160.932 55.3091C159.076 57.2931 158.148 59.9811 158.148 63.3731V93.9971H144.804V62.9891C144.804 59.7251 143.972 57.1331 142.308 55.2131C140.644 53.2291 138.276 52.2371 135.204 52.2371C132.132 52.2371 129.668 53.2611 127.812 55.3091C125.956 57.2931 125.028 59.9811 125.028 63.3731V93.9971H111.684ZM253.126 95.8211C246.79 95.8211 241.35 94.7011 236.806 92.4611C232.262 90.2211 228.55 87.3091 225.67 83.7251C222.854 80.1411 220.774 76.2371 219.43 72.0131C218.086 67.7891 217.414 63.7251 217.414 59.8211V57.7091C217.414 53.3571 218.086 49.0691 219.43 44.8451C220.838 40.6211 222.982 36.7811 225.862 33.3251C228.742 29.8691 232.39 27.1171 236.806 25.0691C241.286 22.9571 246.566 21.9011 252.646 21.9011C258.982 21.9011 264.486 23.0531 269.158 25.3571C273.894 27.5971 277.67 30.7971 280.487 34.9571C283.302 39.0531 284.998 43.8531 285.574 49.3571H271.846C271.334 46.1571 270.182 43.4691 268.39 41.2931C266.662 39.0531 264.454 37.3891 261.766 36.3011C259.078 35.1491 256.038 34.5731 252.646 34.5731C249.19 34.5731 246.118 35.1811 243.43 36.3971C240.742 37.5491 238.502 39.2131 236.71 41.3891C234.918 43.5651 233.542 46.1251 232.582 49.0691C231.686 52.0131 231.238 55.2771 231.238 58.8611C231.238 62.3171 231.686 65.5171 232.582 68.4611C233.542 71.4051 234.95 73.9971 236.806 76.2371C238.662 78.4131 240.934 80.1091 243.622 81.3251C246.374 82.5411 249.542 83.1491 253.126 83.1491C258.375 83.1491 262.791 81.8691 266.375 79.3091C270.022 76.6851 272.23 73.0371 272.999 68.3651H286.727C286.087 73.3571 284.391 77.9331 281.638 82.0931C278.886 86.2531 275.111 89.5811 270.311 92.0771C265.51 94.5731 259.782 95.8211 253.126 95.8211ZM325.878 93.9971V78.5411H323.67V61.3571C323.67 58.3491 322.934 56.1091 321.462 54.6371C319.99 53.1651 317.718 52.4291 314.646 52.4291C313.046 52.4291 311.126 52.4611 308.886 52.5251C306.646 52.5891 304.374 52.6851 302.07 52.8131C299.83 52.8771 297.814 52.9731 296.022 53.1011V41.7731C297.494 41.6451 299.158 41.5171 301.014 41.3891C302.87 41.2611 304.758 41.1971 306.678 41.1971C308.662 41.1331 310.518 41.1011 312.246 41.1011C317.622 41.1011 322.07 41.8051 325.59 43.2131C329.174 44.6211 331.862 46.8291 333.654 49.8371C335.51 52.8451 336.438 56.7811 336.438 61.6451V93.9971H325.878ZM309.078 95.3411C305.302 95.3411 301.974 94.6691 299.094 93.3251C296.278 91.9811 294.07 90.0611 292.47 87.5651C290.934 85.0691 290.166 82.0611 290.166 78.5411C290.166 74.7011 291.094 71.5651 292.95 69.1331C294.87 66.7011 297.526 64.8771 300.918 63.6611C304.374 62.4451 308.406 61.8371 313.014 61.8371H325.11V69.8051H312.822C309.75 69.8051 307.382 70.5731 305.718 72.1091C304.118 73.5811 303.318 75.5011 303.318 77.8691C303.318 80.2371 304.118 82.1571 305.718 83.6291C307.382 85.1011 309.75 85.8371 312.822 85.8371C314.678 85.8371 316.374 85.5171 317.91 84.8771C319.51 84.1731 320.822 83.0211 321.846 81.4211C322.934 79.7571 323.542 77.5171 323.67 74.7011L326.934 78.4451C326.614 82.0931 325.718 85.1651 324.246 87.6611C322.838 90.1571 320.854 92.0771 318.294 93.4211C315.798 94.7011 312.726 95.3411 309.078 95.3411ZM350.347 93.9971V41.8691H363.691V93.9971H350.347ZM343.051 51.8531V41.8691H363.691V51.8531H343.051ZM355.243 35.6291C352.619 35.6291 350.667 34.9571 349.387 33.6131C348.171 32.2051 347.563 30.4771 347.563 28.4291C347.563 26.2531 348.171 24.4931 349.387 23.1491C350.667 21.8051 352.619 21.1331 355.243 21.1331C357.867 21.1331 359.787 21.8051 361.003 23.1491C362.219 24.4931 362.827 26.2531 362.827 28.4291C362.827 30.4771 362.219 32.2051 361.003 33.6131C359.787 34.9571 357.867 35.6291 355.243 35.6291ZM398.846 94.6691C394.046 94.6691 390.078 94.0611 386.942 92.8451C383.87 91.5651 381.566 89.4531 380.03 86.5091C378.494 83.5011 377.726 79.4691 377.726 74.4131L377.822 27.1811H390.302L390.206 75.2771C390.206 77.8371 390.878 79.8211 392.222 81.2291C393.63 82.5731 395.614 83.2451 398.174 83.2451H406.334V94.6691H398.846ZM369.47 51.6611V41.8691H406.334V51.6611H369.47ZM415.326 93.9971V23.9171H428.67V93.9971H415.326ZM408.798 33.9011V23.9171H428.67V33.9011H408.798ZM443.52 93.9971V41.8691H456.864V93.9971H443.52ZM436.224 51.8531V41.8691H456.864V51.8531H436.224ZM448.416 35.6291C445.792 35.6291 443.84 34.9571 442.56 33.6131C441.344 32.2051 440.736 30.4771 440.736 28.4291C440.736 26.2531 441.344 24.4931 442.56 23.1491C443.84 21.8051 445.792 21.1331 448.416 21.1331C451.04 21.1331 452.96 21.8051 454.176 23.1491C455.392 24.4931 456 26.2531 456 28.4291C456 30.4771 455.392 32.2051 454.176 33.6131C452.96 34.9571 451.04 35.6291 448.416 35.6291ZM469.363 93.9971V41.8691H479.923V64.2371H478.963C478.963 58.9251 479.667 54.5091 481.075 50.9891C482.483 47.4051 484.563 44.7171 487.315 42.9251C490.131 41.1331 493.619 40.2371 497.779 40.2371H498.355C504.563 40.2371 509.267 42.2531 512.467 46.2851C515.667 50.2531 517.267 56.2051 517.267 64.1411V93.9971H503.923V62.9891C503.923 59.7891 502.995 57.1971 501.139 55.2131C499.347 53.2291 496.851 52.2371 493.651 52.2371C490.387 52.2371 487.731 53.2611 485.683 55.3091C483.699 57.2931 482.707 59.9811 482.707 63.3731V93.9971H469.363ZM526.621 93.9971V78.6371H541.597V93.9971H526.621ZM563.617 93.9971L587.521 23.9171H609.793L634.369 93.9971H620.353L599.521 33.2291L604.417 35.3411H592.417L597.409 33.2291L577.249 93.9971H563.617ZM580.321 75.3731L584.641 63.8531H613.057L617.281 75.3731H580.321ZM677.593 95.6291C670.425 95.6291 664.793 94.1251 660.697 91.1171C656.665 88.0451 654.553 83.8211 654.361 78.4451H666.361C666.553 80.2371 667.545 81.8691 669.337 83.3411C671.129 84.8131 673.945 85.5491 677.785 85.5491C680.985 85.5491 683.513 84.9731 685.369 83.8211C687.289 82.6691 688.249 81.1011 688.249 79.1171C688.249 77.3891 687.513 76.0131 686.041 74.9891C684.633 73.9651 682.201 73.2931 678.745 72.9731L674.137 72.4931C668.313 71.8531 663.833 70.1891 660.697 67.5011C657.561 64.8131 655.993 61.2291 655.993 56.7491C655.993 53.1651 656.889 50.1571 658.681 47.7251C660.473 45.2931 662.937 43.4691 666.073 42.2531C669.273 40.9731 672.921 40.3331 677.017 40.3331C683.417 40.3331 688.601 41.7411 692.569 44.5571C696.537 47.3731 698.617 51.5011 698.809 56.9411H686.809C686.681 55.1491 685.785 53.6131 684.121 52.3331C682.457 51.0531 680.057 50.4131 676.921 50.4131C674.105 50.4131 671.929 50.9571 670.393 52.0451C668.857 53.1331 668.089 54.5411 668.089 56.2691C668.089 57.9331 668.697 59.2131 669.913 60.1091C671.193 61.0051 673.241 61.6131 676.057 61.9331L680.665 62.4131C686.809 63.0531 691.609 64.7491 695.065 67.5011C698.585 70.2531 700.345 73.9651 700.345 78.6371C700.345 82.0931 699.385 85.1011 697.465 87.6611C695.609 90.1571 692.985 92.1091 689.593 93.5171C686.201 94.9251 682.201 95.6291 677.593 95.6291ZM731.145 94.6691C726.345 94.6691 722.377 94.0611 719.241 92.8451C716.169 91.5651 713.865 89.4531 712.329 86.5091C710.793 83.5011 710.025 79.4691 710.025 74.4131L710.121 27.1811H722.601L722.505 75.2771C722.505 77.8371 723.177 79.8211 724.521 81.2291C725.929 82.5731 727.913 83.2451 730.473 83.2451H738.633V94.6691H731.145ZM701.769 51.6611V41.8691H738.633V51.6611H701.769ZM764.713 95.6291C758.697 95.6291 754.025 93.6451 750.697 89.6771C747.433 85.7091 745.801 79.8211 745.801 72.0131V41.7731H759.145V73.1651C759.145 76.3651 760.041 78.9251 761.833 80.8451C763.625 82.7011 766.057 83.6291 769.129 83.6291C772.201 83.6291 774.697 82.6371 776.617 80.6531C778.601 78.6691 779.593 75.9811 779.593 72.5891V41.7731H792.937V93.9971H782.377V71.8211H783.433C783.433 77.0691 782.761 81.4531 781.417 84.9731C780.073 88.4931 778.057 91.1491 775.369 92.9411C772.681 94.7331 769.321 95.6291 765.289 95.6291H764.713ZM826.985 95.7251C823.337 95.7251 819.977 95.0531 816.905 93.7091C813.833 92.3651 811.177 90.4771 808.937 88.0451C806.697 85.6131 804.969 82.7971 803.753 79.5971C802.537 76.3331 801.929 72.8131 801.929 69.0371V67.0211C801.929 63.3091 802.505 59.8211 803.657 56.5571C804.873 53.2931 806.537 50.4451 808.649 48.0131C810.825 45.5811 813.417 43.6931 816.425 42.3491C819.497 40.9411 822.889 40.2371 826.601 40.2371C830.697 40.2371 834.281 41.1331 837.353 42.9251C840.489 44.6531 842.985 47.2771 844.841 50.7971C846.697 54.3171 847.721 58.7331 847.913 64.0451L843.977 59.4371V23.9171H857.321V93.9971H846.761V71.8211H849.065C848.873 77.1331 847.785 81.5811 845.801 85.1651C843.817 88.6851 841.193 91.3411 837.929 93.1331C834.729 94.8611 831.081 95.7251 826.985 95.7251ZM829.961 84.4931C832.585 84.4931 834.985 83.9171 837.161 82.7651C839.337 81.5491 841.065 79.8211 842.345 77.5811C843.689 75.2771 844.361 72.5891 844.361 69.5171V65.6771C844.361 62.6051 843.689 60.0451 842.345 57.9971C841.001 55.8851 839.241 54.2851 837.065 53.1971C834.889 52.0451 832.521 51.4691 829.961 51.4691C827.081 51.4691 824.521 52.1731 822.281 53.5811C820.105 54.9251 818.377 56.8451 817.097 59.3411C815.881 61.8371 815.273 64.7491 815.273 68.0771C815.273 71.4051 815.913 74.3171 817.193 76.8131C818.473 79.2451 820.201 81.1331 822.377 82.4771C824.617 83.8211 827.145 84.4931 829.961 84.4931ZM892.958 95.8211C888.478 95.8211 884.542 95.0531 881.15 93.5171C877.822 91.9811 875.038 89.9331 872.798 87.3731C870.622 84.7491 868.958 81.8371 867.806 78.6371C866.718 75.4371 866.174 72.1731 866.174 68.8451V67.0211C866.174 63.5651 866.718 60.2371 867.806 57.0371C868.958 53.7731 870.622 50.8931 872.798 48.3971C875.038 45.8371 877.79 43.8211 881.054 42.3491C884.318 40.8131 888.094 40.0451 892.382 40.0451C898.014 40.0451 902.718 41.2931 906.494 43.7891C910.334 46.2211 913.214 49.4531 915.134 53.4851C917.054 57.4531 918.014 61.7411 918.014 66.3491V71.1491H871.838V62.9891H909.662L905.534 67.0211C905.534 63.6931 905.054 60.8451 904.094 58.4771C903.134 56.1091 901.662 54.2851 899.678 53.0051C897.758 51.7251 895.326 51.0851 892.382 51.0851C889.438 51.0851 886.942 51.7571 884.894 53.1011C882.846 54.4451 881.278 56.3971 880.19 58.9571C879.166 61.4531 878.654 64.4611 878.654 67.9811C878.654 71.2451 879.166 74.1571 880.19 76.7171C881.214 79.2131 882.782 81.1971 884.894 82.6691C887.006 84.0771 889.694 84.7811 892.958 84.7811C896.222 84.7811 898.878 84.1411 900.926 82.8611C902.974 81.5171 904.286 79.8851 904.862 77.9651H917.15C916.382 81.5491 914.91 84.6851 912.734 87.3731C910.558 90.0611 907.774 92.1411 904.382 93.6131C901.054 95.0851 897.246 95.8211 892.958 95.8211ZM926.282 93.9971V41.8691H936.842V64.2371H935.882C935.882 58.9251 936.586 54.5091 937.994 50.9891C939.402 47.4051 941.482 44.7171 944.234 42.9251C947.05 41.1331 950.538 40.2371 954.698 40.2371H955.274C961.482 40.2371 966.186 42.2531 969.386 46.2851C972.586 50.2531 974.186 56.2051 974.186 64.1411V93.9971H960.842V62.9891C960.842 59.7891 959.914 57.1971 958.058 55.2131C956.266 53.2291 953.77 52.2371 950.57 52.2371C947.306 52.2371 944.65 53.2611 942.602 55.3091C940.618 57.2931 939.626 59.9811 939.626 63.3731V93.9971H926.282ZM1008.31 94.6691C1003.51 94.6691 999.54 94.0611 996.404 92.8451C993.332 91.5651 991.028 89.4531 989.492 86.5091C987.956 83.5011 987.188 79.4691 987.188 74.4131L987.284 27.1811H999.764L999.668 75.2771C999.668 77.8371 1000.34 79.8211 1001.68 81.2291C1003.09 82.5731 1005.08 83.2451 1007.64 83.2451H1015.8V94.6691H1008.31ZM978.932 51.6611V41.8691H1015.8V51.6611H978.932ZM39.168 214.997V199.541H36.96V182.357C36.96 179.349 36.224 177.109 34.752 175.637C33.28 174.165 31.008 173.429 27.936 173.429C26.336 173.429 24.416 173.461 22.176 173.525C19.936 173.589 17.664 173.685 15.36 173.813C13.12 173.877 11.104 173.973 9.312 174.101V162.773C10.784 162.645 12.448 162.517 14.304 162.389C16.16 162.261 18.048 162.197 19.968 162.197C21.952 162.133 23.808 162.101 25.536 162.101C30.912 162.101 35.36 162.805 38.88 164.213C42.464 165.621 45.152 167.829 46.944 170.837C48.8 173.845 49.728 177.781 49.728 182.645V214.997H39.168ZM22.368 216.341C18.592 216.341 15.264 215.669 12.384 214.325C9.568 212.981 7.36 211.061 5.76 208.565C4.224 206.069 3.456 203.061 3.456 199.541C3.456 195.701 4.384 192.565 6.24 190.133C8.16 187.701 10.816 185.877 14.208 184.661C17.664 183.445 21.696 182.837 26.304 182.837H38.4V190.805H26.112C23.04 190.805 20.672 191.573 19.008 193.109C17.408 194.581 16.608 196.501 16.608 198.869C16.608 201.237 17.408 203.157 19.008 204.629C20.672 206.101 23.04 206.837 26.112 206.837C27.968 206.837 29.664 206.517 31.2 205.877C32.8 205.173 34.112 204.021 35.136 202.421C36.224 200.757 36.832 198.517 36.96 195.701L40.224 199.445C39.904 203.093 39.008 206.165 37.536 208.661C36.128 211.157 34.144 213.077 31.584 214.421C29.088 215.701 26.016 216.341 22.368 216.341ZM61.1415 214.997V162.869H71.7015V185.237H70.7415C70.7415 179.925 71.4455 175.509 72.8535 171.989C74.2615 168.405 76.3415 165.717 79.0935 163.925C81.9095 162.133 85.3975 161.237 89.5575 161.237H90.1335C96.3415 161.237 101.045 163.253 104.245 167.285C107.445 171.253 109.045 177.205 109.045 185.141V214.997H95.7015V183.989C95.7015 180.789 94.7735 178.197 92.9175 176.213C91.1255 174.229 88.6295 173.237 85.4295 173.237C82.1655 173.237 79.5095 174.261 77.4615 176.309C75.4775 178.293 74.4855 180.981 74.4855 184.373V214.997H61.1415ZM142.111 216.725C138.463 216.725 135.103 216.053 132.031 214.709C128.959 213.365 126.303 211.477 124.063 209.045C121.823 206.613 120.095 203.797 118.879 200.597C117.663 197.333 117.055 193.813 117.055 190.037V188.021C117.055 184.309 117.631 180.821 118.783 177.557C119.999 174.293 121.663 171.445 123.775 169.013C125.951 166.581 128.543 164.693 131.551 163.349C134.623 161.941 138.015 161.237 141.727 161.237C145.823 161.237 149.408 162.133 152.48 163.925C155.616 165.653 158.111 168.277 159.967 171.797C161.824 175.317 162.848 179.733 163.039 185.045L159.104 180.437V144.917H172.447V214.997H161.888V192.821H164.192C164 198.133 162.911 202.581 160.927 206.165C158.943 209.685 156.319 212.341 153.055 214.133C149.856 215.861 146.208 216.725 142.111 216.725ZM145.087 205.493C147.711 205.493 150.111 204.917 152.288 203.765C154.464 202.549 156.192 200.821 157.471 198.581C158.815 196.277 159.487 193.589 159.487 190.517V186.677C159.487 183.605 158.815 181.045 157.471 178.997C156.127 176.885 154.367 175.285 152.191 174.197C150.016 173.045 147.648 172.469 145.087 172.469C142.207 172.469 139.648 173.173 137.408 174.581C135.231 175.925 133.503 177.845 132.223 180.341C131.007 182.837 130.399 185.749 130.399 189.077C130.399 192.405 131.039 195.317 132.319 197.813C133.599 200.245 135.327 202.133 137.503 203.477C139.743 204.821 142.271 205.493 145.087 205.493ZM234.179 214.997V199.541H231.971V182.357C231.971 179.349 231.235 177.109 229.763 175.637C228.291 174.165 226.019 173.429 222.947 173.429C221.347 173.429 219.427 173.461 217.187 173.525C214.947 173.589 212.675 173.685 210.371 173.813C208.131 173.877 206.115 173.973 204.323 174.101V162.773C205.795 162.645 207.459 162.517 209.315 162.389C211.171 162.261 213.059 162.197 214.979 162.197C216.963 162.133 218.819 162.101 220.547 162.101C225.923 162.101 230.371 162.805 233.891 164.213C237.475 165.621 240.163 167.829 241.955 170.837C243.811 173.845 244.739 177.781 244.739 182.645V214.997H234.179ZM217.379 216.341C213.603 216.341 210.275 215.669 207.395 214.325C204.579 212.981 202.371 211.061 200.771 208.565C199.235 206.069 198.467 203.061 198.467 199.541C198.467 195.701 199.395 192.565 201.251 190.133C203.171 187.701 205.827 185.877 209.219 184.661C212.675 183.445 216.707 182.837 221.315 182.837H233.411V190.805H221.123C218.051 190.805 215.683 191.573 214.019 193.109C212.419 194.581 211.619 196.501 211.619 198.869C211.619 201.237 212.419 203.157 214.019 204.629C215.683 206.101 218.051 206.837 221.123 206.837C222.979 206.837 224.675 206.517 226.211 205.877C227.811 205.173 229.123 204.021 230.147 202.421C231.235 200.757 231.843 198.517 231.971 195.701L235.235 199.445C234.915 203.093 234.019 206.165 232.547 208.661C231.139 211.157 229.155 213.077 226.595 214.421C224.099 215.701 221.027 216.341 217.379 216.341ZM275.065 216.629C267.897 216.629 262.265 215.125 258.169 212.117C254.137 209.045 252.025 204.821 251.833 199.445H263.833C264.025 201.237 265.017 202.869 266.809 204.341C268.601 205.813 271.417 206.549 275.257 206.549C278.457 206.549 280.985 205.973 282.841 204.821C284.761 203.669 285.721 202.101 285.721 200.117C285.721 198.389 284.985 197.013 283.513 195.989C282.105 194.965 279.673 194.293 276.217 193.973L271.609 193.493C265.785 192.853 261.305 191.189 258.169 188.501C255.033 185.813 253.465 182.229 253.465 177.749C253.465 174.165 254.361 171.157 256.153 168.725C257.945 166.293 260.409 164.469 263.545 163.253C266.745 161.973 270.393 161.333 274.489 161.333C280.889 161.333 286.073 162.741 290.041 165.557C294.009 168.373 296.089 172.501 296.281 177.941H284.281C284.153 176.149 283.257 174.613 281.593 173.333C279.929 172.053 277.529 171.413 274.393 171.413C271.577 171.413 269.401 171.957 267.865 173.045C266.329 174.133 265.561 175.541 265.561 177.269C265.561 178.933 266.169 180.213 267.385 181.109C268.665 182.005 270.713 182.613 273.529 182.933L278.137 183.413C284.281 184.053 289.081 185.749 292.537 188.501C296.057 191.253 297.817 194.965 297.817 199.637C297.817 203.093 296.857 206.101 294.937 208.661C293.081 211.157 290.457 213.109 287.065 214.517C283.673 215.925 279.673 216.629 275.065 216.629ZM305.96 234.197V162.869H316.52V185.333L314.888 185.237C315.144 179.925 316.232 175.477 318.152 171.893C320.136 168.309 322.76 165.653 326.024 163.925C329.288 162.133 332.936 161.237 336.968 161.237C340.68 161.237 344.008 161.909 346.952 163.253C349.96 164.597 352.52 166.485 354.632 168.917C356.808 171.349 358.472 174.197 359.624 177.461C360.776 180.661 361.352 184.117 361.352 187.829V189.845C361.352 193.621 360.776 197.141 359.624 200.405C358.536 203.605 356.904 206.453 354.728 208.949C352.616 211.381 350.056 213.301 347.048 214.709C344.04 216.053 340.68 216.725 336.968 216.725C333.064 216.725 329.48 215.925 326.216 214.325C323.016 212.661 320.424 210.133 318.44 206.741C316.456 203.285 315.336 198.837 315.08 193.397L319.304 199.829V234.197H305.96ZM333.608 205.493C336.488 205.493 338.984 204.789 341.096 203.381C343.272 201.973 344.968 200.021 346.184 197.525C347.4 194.965 348.008 192.085 348.008 188.885C348.008 185.557 347.4 182.677 346.184 180.245C344.968 177.813 343.272 175.925 341.096 174.581C338.984 173.173 336.488 172.469 333.608 172.469C330.984 172.469 328.552 173.045 326.312 174.197C324.136 175.349 322.344 177.045 320.936 179.285C319.592 181.525 318.92 184.213 318.92 187.349V191.189C318.92 194.197 319.624 196.757 321.032 198.869C322.44 200.981 324.264 202.613 326.504 203.765C328.744 204.917 331.112 205.493 333.608 205.493ZM372.701 214.997V162.869H386.045V214.997H372.701ZM365.405 172.853V162.869H386.045V172.853H365.405ZM377.597 156.629C374.973 156.629 373.021 155.957 371.741 154.613C370.525 153.205 369.917 151.477 369.917 149.429C369.917 147.253 370.525 145.493 371.741 144.149C373.021 142.805 374.973 142.133 377.597 142.133C380.221 142.133 382.141 142.805 383.357 144.149C384.573 145.493 385.181 147.253 385.181 149.429C385.181 151.477 384.573 153.205 383.357 154.613C382.141 155.957 380.221 156.629 377.597 156.629ZM398.544 214.997V162.869H409.104V184.949H408.816C408.816 177.461 410.416 171.797 413.616 167.957C416.816 164.117 421.52 162.197 427.728 162.197H429.648V173.813H426C421.52 173.813 418.032 175.029 415.536 177.461C413.104 179.829 411.888 183.285 411.888 187.829V214.997H398.544ZM438.191 214.997V162.869H451.535V214.997H438.191ZM430.895 172.853V162.869H451.535V172.853H430.895ZM443.087 156.629C440.463 156.629 438.511 155.957 437.231 154.613C436.015 153.205 435.407 151.477 435.407 149.429C435.407 147.253 436.015 145.493 437.231 144.149C438.511 142.805 440.463 142.133 443.087 142.133C445.711 142.133 447.631 142.805 448.847 144.149C450.063 145.493 450.671 147.253 450.671 149.429C450.671 151.477 450.063 153.205 448.847 154.613C447.631 155.957 445.711 156.629 443.087 156.629ZM464.034 214.997V162.869H474.594V185.237H473.634C473.634 179.925 474.338 175.509 475.746 171.989C477.154 168.405 479.234 165.717 481.986 163.925C484.802 162.133 488.29 161.237 492.45 161.237H493.026C499.234 161.237 503.938 163.253 507.138 167.285C510.338 171.253 511.938 177.205 511.938 185.141V214.997H498.594V183.989C498.594 180.789 497.666 178.197 495.81 176.213C494.018 174.229 491.522 173.237 488.322 173.237C485.058 173.237 482.402 174.261 480.354 176.309C478.37 178.293 477.378 180.981 477.378 184.373V214.997H464.034ZM543.756 235.541C541.26 235.541 538.7 235.445 536.076 235.253C533.516 235.061 531.116 234.805 528.876 234.485V223.349C531.18 223.605 533.644 223.829 536.268 224.021C538.892 224.277 541.356 224.405 543.66 224.405C547.948 224.405 551.404 223.893 554.028 222.869C556.716 221.845 558.668 220.213 559.884 217.973C561.164 215.797 561.804 213.013 561.804 209.621V199.349L564.684 192.821C564.492 197.621 563.5 201.717 561.708 205.109C559.916 208.437 557.484 210.997 554.412 212.789C551.34 214.517 547.788 215.381 543.756 215.381C540.172 215.381 536.908 214.709 533.964 213.365C531.084 212.021 528.588 210.165 526.476 207.797C524.428 205.429 522.828 202.645 521.676 199.445C520.524 196.245 519.948 192.821 519.948 189.173V187.157C519.948 183.509 520.524 180.117 521.676 176.981C522.892 173.781 524.588 170.997 526.764 168.629C528.94 166.261 531.532 164.437 534.54 163.157C537.548 161.877 540.876 161.237 544.524 161.237C548.812 161.237 552.524 162.165 555.66 164.021C558.86 165.877 561.356 168.565 563.148 172.085C564.94 175.605 565.932 179.925 566.124 185.045L563.82 185.429V162.869H574.38V208.853C574.38 215.189 573.292 220.309 571.116 224.213C568.94 228.117 565.58 230.965 561.036 232.757C556.556 234.613 550.796 235.541 543.756 235.541ZM547.596 203.957C550.156 203.957 552.492 203.381 554.604 202.229C556.716 201.077 558.412 199.413 559.692 197.237C560.972 195.061 561.612 192.437 561.612 189.365V186.005C561.612 183.061 560.94 180.565 559.596 178.517C558.316 176.469 556.62 174.933 554.508 173.909C552.396 172.821 550.092 172.277 547.596 172.277C544.78 172.277 542.284 172.949 540.108 174.293C537.996 175.573 536.332 177.397 535.116 179.765C533.9 182.133 533.292 184.949 533.292 188.213C533.292 191.413 533.9 194.197 535.116 196.565C536.332 198.933 537.996 200.757 540.108 202.037C542.284 203.317 544.78 203.957 547.596 203.957ZM625.494 216.725C621.846 216.725 618.486 216.053 615.414 214.709C612.342 213.365 609.686 211.477 607.446 209.045C605.206 206.613 603.478 203.797 602.262 200.597C601.046 197.333 600.438 193.813 600.438 190.037V188.021C600.438 184.309 601.014 180.821 602.166 177.557C603.382 174.293 605.046 171.445 607.158 169.013C609.334 166.581 611.926 164.693 614.934 163.349C618.006 161.941 621.398 161.237 625.11 161.237C629.206 161.237 632.79 162.133 635.862 163.925C638.998 165.653 641.494 168.277 643.35 171.797C645.206 175.317 646.23 179.733 646.422 185.045L642.486 180.437V144.917H655.83V214.997H645.27V192.821H647.574C647.382 198.133 646.294 202.581 644.31 206.165C642.326 209.685 639.702 212.341 636.438 214.133C633.238 215.861 629.59 216.725 625.494 216.725ZM628.47 205.493C631.094 205.493 633.494 204.917 635.67 203.765C637.846 202.549 639.574 200.821 640.854 198.581C642.198 196.277 642.87 193.589 642.87 190.517V186.677C642.87 183.605 642.198 181.045 640.854 178.997C639.51 176.885 637.75 175.285 635.574 174.197C633.398 173.045 631.03 172.469 628.47 172.469C625.59 172.469 623.03 173.173 620.79 174.581C618.614 175.925 616.886 177.845 615.606 180.341C614.39 182.837 613.782 185.749 613.782 189.077C613.782 192.405 614.422 195.317 615.702 197.813C616.982 200.245 618.71 202.133 620.886 203.477C623.126 204.821 625.654 205.493 628.47 205.493ZM691.467 216.821C686.987 216.821 683.051 216.053 679.659 214.517C676.331 212.981 673.547 210.933 671.307 208.373C669.131 205.749 667.467 202.837 666.315 199.637C665.227 196.437 664.683 193.173 664.683 189.845V188.021C664.683 184.565 665.227 181.237 666.315 178.037C667.467 174.773 669.131 171.893 671.307 169.397C673.547 166.837 676.299 164.821 679.563 163.349C682.827 161.813 686.603 161.045 690.891 161.045C696.523 161.045 701.227 162.293 705.003 164.789C708.843 167.221 711.723 170.453 713.643 174.485C715.563 178.453 716.523 182.741 716.523 187.349V192.149H670.347V183.989H708.171L704.043 188.021C704.043 184.693 703.563 181.845 702.603 179.477C701.643 177.109 700.171 175.285 698.187 174.005C696.267 172.725 693.835 172.085 690.891 172.085C687.947 172.085 685.451 172.757 683.403 174.101C681.355 175.445 679.787 177.397 678.699 179.957C677.675 182.453 677.163 185.461 677.163 188.981C677.163 192.245 677.675 195.157 678.699 197.717C679.723 200.213 681.291 202.197 683.403 203.669C685.515 205.077 688.203 205.781 691.467 205.781C694.731 205.781 697.387 205.141 699.435 203.861C701.483 202.517 702.795 200.885 703.371 198.965H715.659C714.891 202.549 713.419 205.685 711.243 208.373C709.067 211.061 706.283 213.141 702.891 214.613C699.563 216.085 695.755 216.821 691.467 216.821ZM734.785 214.997L718.465 162.869H732.193L747.841 214.997H734.785ZM738.721 214.997V204.053H752.833V214.997H738.721ZM744.001 214.997L757.441 162.869H770.305L756.193 214.997H744.001ZM799.707 216.821C795.227 216.821 791.291 216.053 787.899 214.517C784.571 212.981 781.787 210.933 779.547 208.373C777.371 205.749 775.707 202.837 774.555 199.637C773.467 196.437 772.923 193.173 772.923 189.845V188.021C772.923 184.565 773.467 181.237 774.555 178.037C775.707 174.773 777.371 171.893 779.547 169.397C781.787 166.837 784.539 164.821 787.803 163.349C791.067 161.813 794.843 161.045 799.131 161.045C804.763 161.045 809.467 162.293 813.243 164.789C817.083 167.221 819.963 170.453 821.883 174.485C823.803 178.453 824.763 182.741 824.763 187.349V192.149H778.587V183.989H816.411L812.283 188.021C812.283 184.693 811.803 181.845 810.843 179.477C809.883 177.109 808.411 175.285 806.427 174.005C804.507 172.725 802.075 172.085 799.131 172.085C796.187 172.085 793.691 172.757 791.643 174.101C789.595 175.445 788.027 177.397 786.939 179.957C785.915 182.453 785.403 185.461 785.403 188.981C785.403 192.245 785.915 195.157 786.939 197.717C787.963 200.213 789.531 202.197 791.643 203.669C793.755 205.077 796.443 205.781 799.707 205.781C802.971 205.781 805.627 205.141 807.675 203.861C809.723 202.517 811.035 200.885 811.611 198.965H823.899C823.131 202.549 821.659 205.685 819.483 208.373C817.307 211.061 814.523 213.141 811.131 214.613C807.803 216.085 803.995 216.821 799.707 216.821ZM833.702 214.997V144.917H847.046V214.997H833.702ZM827.174 154.901V144.917H847.046V154.901H827.174ZM884.456 216.821C879.848 216.821 875.784 216.085 872.264 214.613C868.744 213.141 865.768 211.157 863.336 208.661C860.904 206.101 859.048 203.221 857.768 200.021C856.552 196.821 855.944 193.493 855.944 190.037V188.021C855.944 184.437 856.584 181.045 857.864 177.845C859.208 174.581 861.096 171.701 863.528 169.205C866.024 166.645 869.032 164.661 872.552 163.253C876.072 161.781 880.04 161.045 884.456 161.045C888.872 161.045 892.84 161.781 896.36 163.253C899.88 164.661 902.856 166.645 905.288 169.205C907.784 171.701 909.672 174.581 910.952 177.845C912.232 181.045 912.872 184.437 912.872 188.021V190.037C912.872 193.493 912.232 196.821 910.952 200.021C909.736 203.221 907.912 206.101 905.48 208.661C903.048 211.157 900.072 213.141 896.552 214.613C893.032 216.085 889 216.821 884.456 216.821ZM884.456 205.397C887.72 205.397 890.472 204.693 892.712 203.285C894.952 201.813 896.648 199.861 897.8 197.429C898.952 194.933 899.528 192.117 899.528 188.981C899.528 185.781 898.92 182.965 897.704 180.533C896.552 178.037 894.824 176.085 892.52 174.677C890.28 173.205 887.592 172.469 884.456 172.469C881.32 172.469 878.6 173.205 876.296 174.677C874.056 176.085 872.328 178.037 871.112 180.533C869.896 182.965 869.288 185.781 869.288 188.981C869.288 192.117 869.864 194.933 871.016 197.429C872.232 199.861 873.96 201.813 876.2 203.285C878.44 204.693 881.192 205.397 884.456 205.397ZM921.676 234.197V162.869H932.236V185.333L930.604 185.237C930.86 179.925 931.948 175.477 933.868 171.893C935.852 168.309 938.476 165.653 941.74 163.925C945.004 162.133 948.652 161.237 952.684 161.237C956.396 161.237 959.724 161.909 962.668 163.253C965.676 164.597 968.236 166.485 970.348 168.917C972.524 171.349 974.188 174.197 975.34 177.461C976.492 180.661 977.068 184.117 977.068 187.829V189.845C977.068 193.621 976.492 197.141 975.34 200.405C974.252 203.605 972.62 206.453 970.444 208.949C968.332 211.381 965.772 213.301 962.764 214.709C959.756 216.053 956.396 216.725 952.684 216.725C948.78 216.725 945.196 215.925 941.932 214.325C938.732 212.661 936.14 210.133 934.156 206.741C932.172 203.285 931.052 198.837 930.796 193.397L935.02 199.829V234.197H921.676ZM949.324 205.493C952.204 205.493 954.7 204.789 956.812 203.381C958.988 201.973 960.684 200.021 961.9 197.525C963.116 194.965 963.724 192.085 963.724 188.885C963.724 185.557 963.116 182.677 961.9 180.245C960.684 177.813 958.988 175.925 956.812 174.581C954.7 173.173 952.204 172.469 949.324 172.469C946.7 172.469 944.268 173.045 942.028 174.197C939.852 175.349 938.06 177.045 936.652 179.285C935.308 181.525 934.636 184.213 934.636 187.349V191.189C934.636 194.197 935.34 196.757 936.748 198.869C938.156 200.981 939.98 202.613 942.22 203.765C944.46 204.917 946.828 205.493 949.324 205.493ZM1009.25 216.821C1004.77 216.821 1000.83 216.053 997.442 214.517C994.114 212.981 991.33 210.933 989.09 208.373C986.914 205.749 985.25 202.837 984.098 199.637C983.01 196.437 982.466 193.173 982.466 189.845V188.021C982.466 184.565 983.01 181.237 984.098 178.037C985.25 174.773 986.914 171.893 989.09 169.397C991.33 166.837 994.082 164.821 997.346 163.349C1000.61 161.813 1004.39 161.045 1008.67 161.045C1014.31 161.045 1019.01 162.293 1022.79 164.789C1026.63 167.221 1029.51 170.453 1031.43 174.485C1033.35 178.453 1034.31 182.741 1034.31 187.349V192.149H988.13V183.989H1025.95L1021.83 188.021C1021.83 184.693 1021.35 181.845 1020.39 179.477C1019.43 177.109 1017.95 175.285 1015.97 174.005C1014.05 172.725 1011.62 172.085 1008.67 172.085C1005.73 172.085 1003.23 172.757 1001.19 174.101C999.138 175.445 997.57 177.397 996.482 179.957C995.458 182.453 994.946 185.461 994.946 188.981C994.946 192.245 995.458 195.157 996.482 197.717C997.506 200.213 999.074 202.197 1001.19 203.669C1003.3 205.077 1005.99 205.781 1009.25 205.781C1012.51 205.781 1015.17 205.141 1017.22 203.861C1019.27 202.517 1020.58 200.885 1021.15 198.965H1033.44C1032.67 202.549 1031.2 205.685 1029.03 208.373C1026.85 211.061 1024.07 213.141 1020.67 214.613C1017.35 216.085 1013.54 216.821 1009.25 216.821ZM1042.57 214.997V162.869H1053.13V184.949H1052.84C1052.84 177.461 1054.44 171.797 1057.64 167.957C1060.84 164.117 1065.55 162.197 1071.76 162.197H1073.68V173.813H1070.03C1065.55 173.813 1062.06 175.029 1059.56 177.461C1057.13 179.829 1055.92 183.285 1055.92 187.829V214.997H1042.57ZM1071.89 214.997V199.637H1086.87V214.997H1071.89Z" fill="#1D184E"/>
<line x1="1021.96" y1="21.0225" x2="1030.19" y2="2.03967" stroke="#5451FF" stroke-width="4" stroke-linecap="round"/>
<line x1="1032.82" y1="32.1511" x2="1049.62" y2="15.3468" stroke="#5451FF" stroke-width="4" stroke-linecap="round"/>
<line x1="1038.92" y1="42.4425" x2="1057.65" y2="38.6964" stroke="#5451FF" stroke-width="4" stroke-linecap="round"/>
</svg>
