<svg width="506" height="82" viewBox="0 0 506 82" fill="none" xmlns="http://www.w3.org/2000/svg">
<path d="M18.645 56.045C15.0883 56.045 12.0817 55.4767 9.625 54.34C7.205 53.2033 5.35333 51.645 4.07 49.665C2.78667 47.6483 2.145 45.375 2.145 42.845H9.79C9.79 43.9083 10.0833 44.9533 10.67 45.98C11.2567 46.97 12.1917 47.7767 13.475 48.4C14.795 49.0233 16.5183 49.335 18.645 49.335C20.5517 49.335 22.1467 49.06 23.43 48.51C24.7133 47.96 25.6667 47.245 26.29 46.365C26.9133 45.4483 27.225 44.4217 27.225 43.285C27.225 41.855 26.62 40.7183 25.41 39.875C24.2 38.995 22.33 38.445 19.8 38.225L16.28 37.95C12.43 37.62 9.35 36.4283 7.04 34.375C4.76667 32.285 3.63 29.535 3.63 26.125C3.63 23.5583 4.235 21.3583 5.445 19.525C6.655 17.655 8.34167 16.225 10.505 15.235C12.705 14.2083 15.2717 13.695 18.205 13.695C21.2483 13.695 23.87 14.2267 26.07 15.29C28.27 16.3533 29.975 17.8567 31.185 19.8C32.395 21.7067 33 23.9617 33 26.565H25.355C25.355 25.465 25.08 24.4567 24.53 23.54C24.0167 22.5867 23.2283 21.835 22.165 21.285C21.1383 20.6983 19.8183 20.405 18.205 20.405C16.665 20.405 15.3817 20.6617 14.355 21.175C13.3283 21.6883 12.5583 22.385 12.045 23.265C11.5317 24.145 11.275 25.0983 11.275 26.125C11.275 27.3717 11.7333 28.4717 12.65 29.425C13.5667 30.3417 15.015 30.8733 16.995 31.02L20.515 31.35C23.375 31.57 25.8867 32.175 28.05 33.165C30.2133 34.155 31.8817 35.4933 33.055 37.18C34.265 38.8667 34.87 40.9017 34.87 43.285C34.87 45.815 34.21 48.0517 32.89 49.995C31.57 51.9017 29.6817 53.3867 27.225 54.45C24.805 55.5133 21.945 56.045 18.645 56.045ZM53.1205 56.045C50.5539 56.045 48.2989 55.605 46.3555 54.725C44.4489 53.845 42.8539 52.6717 41.5705 51.205C40.3239 49.7017 39.3705 48.0333 38.7105 46.2C38.0872 44.3667 37.7755 42.4967 37.7755 40.59V39.545C37.7755 37.565 38.0872 35.6583 38.7105 33.825C39.3705 31.955 40.3239 30.305 41.5705 28.875C42.8539 27.4083 44.4305 26.2533 46.3005 25.41C48.1705 24.53 50.3339 24.09 52.7905 24.09C56.0172 24.09 58.7122 24.805 60.8755 26.235C63.0755 27.6283 64.7255 29.48 65.8255 31.79C66.9255 34.0633 67.4755 36.52 67.4755 39.16V41.91H41.0205V37.235H62.6905L60.3255 39.545C60.3255 37.6383 60.0505 36.0067 59.5005 34.65C58.9505 33.2933 58.1072 32.2483 56.9705 31.515C55.8705 30.7817 54.4772 30.415 52.7905 30.415C51.1039 30.415 49.6739 30.8 48.5005 31.57C47.3272 32.34 46.4289 33.4583 45.8055 34.925C45.2189 36.355 44.9255 38.0783 44.9255 40.095C44.9255 41.965 45.2189 43.6333 45.8055 45.1C46.3922 46.53 47.2905 47.6667 48.5005 48.51C49.7105 49.3167 51.2505 49.72 53.1205 49.72C54.9905 49.72 56.5122 49.3533 57.6855 48.62C58.8589 47.85 59.6105 46.915 59.9405 45.815H66.9805C66.5405 47.8683 65.6972 49.665 64.4505 51.205C63.2039 52.745 61.6089 53.9367 59.6655 54.78C57.7589 55.6233 55.5772 56.045 53.1205 56.045ZM72.597 55V14.85H80.242V55H72.597ZM68.857 20.57V14.85H80.242V20.57H68.857ZM100.685 56.045C98.1181 56.045 95.8631 55.605 93.9198 54.725C92.0131 53.845 90.4181 52.6717 89.1348 51.205C87.8881 49.7017 86.9348 48.0333 86.2748 46.2C85.6515 44.3667 85.3398 42.4967 85.3398 40.59V39.545C85.3398 37.565 85.6515 35.6583 86.2748 33.825C86.9348 31.955 87.8881 30.305 89.1348 28.875C90.4181 27.4083 91.9948 26.2533 93.8648 25.41C95.7348 24.53 97.8981 24.09 100.355 24.09C103.581 24.09 106.276 24.805 108.44 26.235C110.64 27.6283 112.29 29.48 113.39 31.79C114.49 34.0633 115.04 36.52 115.04 39.16V41.91H88.5848V37.235H110.255L107.89 39.545C107.89 37.6383 107.615 36.0067 107.065 34.65C106.515 33.2933 105.671 32.2483 104.535 31.515C103.435 30.7817 102.041 30.415 100.355 30.415C98.6681 30.415 97.2381 30.8 96.0648 31.57C94.8915 32.34 93.9931 33.4583 93.3698 34.925C92.7831 36.355 92.4898 38.0783 92.4898 40.095C92.4898 41.965 92.7831 43.6333 93.3698 45.1C93.9565 46.53 94.8548 47.6667 96.0648 48.51C97.2748 49.3167 98.8148 49.72 100.685 49.72C102.555 49.72 104.076 49.3533 105.25 48.62C106.423 47.85 107.175 46.915 107.505 45.815H114.545C114.105 47.8683 113.261 49.665 112.015 51.205C110.768 52.745 109.173 53.9367 107.23 54.78C105.323 55.6233 103.141 56.045 100.685 56.045ZM133.031 56.045C130.428 56.045 128.173 55.605 126.266 54.725C124.396 53.845 122.82 52.6717 121.536 51.205C120.29 49.7383 119.355 48.0883 118.731 46.255C118.108 44.4217 117.796 42.5517 117.796 40.645V39.6C117.796 37.5833 118.108 35.6583 118.731 33.825C119.391 31.955 120.363 30.305 121.646 28.875C122.93 27.4083 124.506 26.2533 126.376 25.41C128.283 24.53 130.483 24.09 132.976 24.09C135.58 24.09 137.908 24.6033 139.961 25.63C142.015 26.62 143.646 28.0133 144.856 29.81C146.103 31.6067 146.8 33.6967 146.946 36.08H139.521C139.338 34.54 138.678 33.2567 137.541 32.23C136.441 31.2033 134.92 30.69 132.976 30.69C131.29 30.69 129.878 31.0933 128.741 31.9C127.641 32.7067 126.816 33.825 126.266 35.255C125.716 36.6483 125.441 38.2617 125.441 40.095C125.441 41.855 125.698 43.45 126.211 44.88C126.761 46.31 127.586 47.4283 128.686 48.235C129.823 49.0417 131.271 49.445 133.031 49.445C134.351 49.445 135.488 49.2067 136.441 48.73C137.395 48.2533 138.146 47.5933 138.696 46.75C139.283 45.9067 139.65 44.9533 139.796 43.89H147.221C147.075 46.31 146.36 48.4367 145.076 50.27C143.83 52.0667 142.161 53.4783 140.071 54.505C138.018 55.5317 135.671 56.045 133.031 56.045ZM164.676 55.385C161.926 55.385 159.652 55.0367 157.856 54.34C156.096 53.6067 154.776 52.3967 153.896 50.71C153.016 48.9867 152.576 46.6767 152.576 43.78L152.631 16.72H159.781L159.726 44.275C159.726 45.7417 160.111 46.8783 160.881 47.685C161.687 48.455 162.824 48.84 164.291 48.84H168.966V55.385H164.676ZM147.846 30.745V25.135H168.966V30.745H147.846ZM186.936 56.045C184.369 56.045 182.114 55.605 180.171 54.725C178.264 53.845 176.669 52.6717 175.386 51.205C174.139 49.7017 173.186 48.0333 172.526 46.2C171.903 44.3667 171.591 42.4967 171.591 40.59V39.545C171.591 37.565 171.903 35.6583 172.526 33.825C173.186 31.955 174.139 30.305 175.386 28.875C176.669 27.4083 178.246 26.2533 180.116 25.41C181.986 24.53 184.149 24.09 186.606 24.09C189.833 24.09 192.528 24.805 194.691 26.235C196.891 27.6283 198.541 29.48 199.641 31.79C200.741 34.0633 201.291 36.52 201.291 39.16V41.91H174.836V37.235H196.506L194.141 39.545C194.141 37.6383 193.866 36.0067 193.316 34.65C192.766 33.2933 191.923 32.2483 190.786 31.515C189.686 30.7817 188.293 30.415 186.606 30.415C184.919 30.415 183.489 30.8 182.316 31.57C181.143 32.34 180.244 33.4583 179.621 34.925C179.034 36.355 178.741 38.0783 178.741 40.095C178.741 41.965 179.034 43.6333 179.621 45.1C180.208 46.53 181.106 47.6667 182.316 48.51C183.526 49.3167 185.066 49.72 186.936 49.72C188.806 49.72 190.328 49.3533 191.501 48.62C192.674 47.85 193.426 46.915 193.756 45.815H200.796C200.356 47.8683 199.513 49.665 198.266 51.205C197.019 52.745 195.424 53.9367 193.481 54.78C191.574 55.6233 189.393 56.045 186.936 56.045ZM218.402 55.99C216.312 55.99 214.387 55.605 212.627 54.835C210.867 54.065 209.346 52.9833 208.062 51.59C206.779 50.1967 205.789 48.5833 205.092 46.75C204.396 44.88 204.047 42.8633 204.047 40.7V39.545C204.047 37.4183 204.377 35.42 205.037 33.55C205.734 31.68 206.687 30.0483 207.897 28.655C209.144 27.2617 210.629 26.18 212.352 25.41C214.112 24.6033 216.056 24.2 218.182 24.2C220.529 24.2 222.582 24.7133 224.342 25.74C226.139 26.73 227.569 28.2333 228.632 30.25C229.696 32.2667 230.282 34.7967 230.392 37.84L228.137 35.2V14.85H235.782V55H229.732V42.295H231.052C230.942 45.3383 230.319 47.8867 229.182 49.94C228.046 51.9567 226.542 53.4783 224.672 54.505C222.839 55.495 220.749 55.99 218.402 55.99ZM220.107 49.555C221.611 49.555 222.986 49.225 224.232 48.565C225.479 47.8683 226.469 46.8783 227.202 45.595C227.972 44.275 228.357 42.735 228.357 40.975V38.775C228.357 37.015 227.972 35.5483 227.202 34.375C226.432 33.165 225.424 32.2483 224.177 31.625C222.931 30.965 221.574 30.635 220.107 30.635C218.457 30.635 216.991 31.0383 215.707 31.845C214.461 32.615 213.471 33.715 212.737 35.145C212.041 36.575 211.692 38.2433 211.692 40.15C211.692 42.0567 212.059 43.725 212.792 45.155C213.526 46.5483 214.516 47.63 215.762 48.4C217.046 49.17 218.494 49.555 220.107 49.555ZM260.37 42.68V35.915H268.18C269.756 35.915 271.076 35.6033 272.14 34.98C273.24 34.3567 274.065 33.495 274.615 32.395C275.201 31.295 275.495 30.03 275.495 28.6C275.495 27.17 275.201 25.905 274.615 24.805C274.065 23.705 273.24 22.8617 272.14 22.275C271.076 21.6517 269.756 21.34 268.18 21.34H260.37V14.575H267.52C270.893 14.575 273.753 15.125 276.1 16.225C278.483 17.325 280.298 18.9017 281.545 20.955C282.791 22.9717 283.415 25.3733 283.415 28.16V29.04C283.415 31.8267 282.791 34.2467 281.545 36.3C280.298 38.3167 278.483 39.8933 276.1 41.03C273.753 42.13 270.893 42.68 267.52 42.68H260.37ZM253.66 55V14.575H261.47V55H253.66ZM287.821 55V25.135H293.871V37.785H293.706C293.706 33.495 294.622 30.25 296.456 28.05C298.289 25.85 300.984 24.75 304.541 24.75H305.641V31.405H303.551C300.984 31.405 298.986 32.1017 297.556 33.495C296.162 34.8517 295.466 36.8317 295.466 39.435V55H287.821ZM323.245 56.045C320.605 56.045 318.277 55.6233 316.26 54.78C314.244 53.9367 312.539 52.8 311.145 51.37C309.752 49.9033 308.689 48.2533 307.955 46.42C307.259 44.5867 306.91 42.68 306.91 40.7V39.545C306.91 37.4917 307.277 35.5483 308.01 33.715C308.78 31.845 309.862 30.195 311.255 28.765C312.685 27.2983 314.409 26.1617 316.425 25.355C318.442 24.5117 320.715 24.09 323.245 24.09C325.775 24.09 328.049 24.5117 330.065 25.355C332.082 26.1617 333.787 27.2983 335.18 28.765C336.61 30.195 337.692 31.845 338.425 33.715C339.159 35.5483 339.525 37.4917 339.525 39.545V40.7C339.525 42.68 339.159 44.5867 338.425 46.42C337.729 48.2533 336.684 49.9033 335.29 51.37C333.897 52.8 332.192 53.9367 330.175 54.78C328.159 55.6233 325.849 56.045 323.245 56.045ZM323.245 49.5C325.115 49.5 326.692 49.0967 327.975 48.29C329.259 47.4467 330.23 46.3283 330.89 44.935C331.55 43.505 331.88 41.8917 331.88 40.095C331.88 38.2617 331.532 36.6483 330.835 35.255C330.175 33.825 329.185 32.7067 327.865 31.9C326.582 31.0567 325.042 30.635 323.245 30.635C321.449 30.635 319.89 31.0567 318.57 31.9C317.287 32.7067 316.297 33.825 315.6 35.255C314.904 36.6483 314.555 38.2617 314.555 40.095C314.555 41.8917 314.885 43.505 315.545 44.935C316.242 46.3283 317.232 47.4467 318.515 48.29C319.799 49.0967 321.375 49.5 323.245 49.5ZM340.334 66.275V59.73H342.644C344.001 59.73 345.046 59.3633 345.779 58.63C346.513 57.8967 346.879 56.8517 346.879 55.495V25.135H354.249V55.055C354.249 57.805 353.828 59.9867 352.984 61.6C352.141 63.25 350.839 64.4417 349.079 65.175C347.319 65.9083 345.009 66.275 342.149 66.275H340.334ZM342.534 30.855V25.135H354.249V30.855H342.534ZM349.354 21.34C347.888 21.34 346.788 20.955 346.054 20.185C345.358 19.3783 345.009 18.37 345.009 17.16C345.009 15.95 345.358 14.96 346.054 14.19C346.788 13.42 347.888 13.035 349.354 13.035C350.858 13.035 351.958 13.42 352.654 14.19C353.388 14.96 353.754 15.95 353.754 17.16C353.754 18.37 353.388 19.3783 352.654 20.185C351.958 20.955 350.858 21.34 349.354 21.34ZM374.546 56.045C371.979 56.045 369.724 55.605 367.781 54.725C365.874 53.845 364.279 52.6717 362.996 51.205C361.749 49.7017 360.796 48.0333 360.136 46.2C359.513 44.3667 359.201 42.4967 359.201 40.59V39.545C359.201 37.565 359.513 35.6583 360.136 33.825C360.796 31.955 361.749 30.305 362.996 28.875C364.279 27.4083 365.856 26.2533 367.726 25.41C369.596 24.53 371.759 24.09 374.216 24.09C377.443 24.09 380.138 24.805 382.301 26.235C384.501 27.6283 386.151 29.48 387.251 31.79C388.351 34.0633 388.901 36.52 388.901 39.16V41.91H362.446V37.235H384.116L381.751 39.545C381.751 37.6383 381.476 36.0067 380.926 34.65C380.376 33.2933 379.533 32.2483 378.396 31.515C377.296 30.7817 375.903 30.415 374.216 30.415C372.529 30.415 371.099 30.8 369.926 31.57C368.753 32.34 367.854 33.4583 367.231 34.925C366.644 36.355 366.351 38.0783 366.351 40.095C366.351 41.965 366.644 43.6333 367.231 45.1C367.818 46.53 368.716 47.6667 369.926 48.51C371.136 49.3167 372.676 49.72 374.546 49.72C376.416 49.72 377.938 49.3533 379.111 48.62C380.284 47.85 381.036 46.915 381.366 45.815H388.406C387.966 47.8683 387.123 49.665 385.876 51.205C384.629 52.745 383.034 53.9367 381.091 54.78C379.184 55.6233 377.003 56.045 374.546 56.045ZM406.893 56.045C404.289 56.045 402.034 55.605 400.128 54.725C398.258 53.845 396.681 52.6717 395.398 51.205C394.151 49.7383 393.216 48.0883 392.593 46.255C391.969 44.4217 391.658 42.5517 391.658 40.645V39.6C391.658 37.5833 391.969 35.6583 392.593 33.825C393.253 31.955 394.224 30.305 395.508 28.875C396.791 27.4083 398.368 26.2533 400.238 25.41C402.144 24.53 404.344 24.09 406.838 24.09C409.441 24.09 411.769 24.6033 413.823 25.63C415.876 26.62 417.508 28.0133 418.718 29.81C419.964 31.6067 420.661 33.6967 420.808 36.08H413.383C413.199 34.54 412.539 33.2567 411.403 32.23C410.303 31.2033 408.781 30.69 406.838 30.69C405.151 30.69 403.739 31.0933 402.603 31.9C401.503 32.7067 400.678 33.825 400.128 35.255C399.578 36.6483 399.303 38.2617 399.303 40.095C399.303 41.855 399.559 43.45 400.073 44.88C400.623 46.31 401.448 47.4283 402.548 48.235C403.684 49.0417 405.133 49.445 406.893 49.445C408.213 49.445 409.349 49.2067 410.303 48.73C411.256 48.2533 412.008 47.5933 412.558 46.75C413.144 45.9067 413.511 44.9533 413.658 43.89H421.083C420.936 46.31 420.221 48.4367 418.938 50.27C417.691 52.0667 416.023 53.4783 413.933 54.505C411.879 55.5317 409.533 56.045 406.893 56.045ZM438.537 55.385C435.787 55.385 433.514 55.0367 431.717 54.34C429.957 53.6067 428.637 52.3967 427.757 50.71C426.877 48.9867 426.437 46.6767 426.437 43.78L426.492 16.72H433.642L433.587 44.275C433.587 45.7417 433.972 46.8783 434.742 47.685C435.549 48.455 436.685 48.84 438.152 48.84H442.827V55.385H438.537ZM421.707 30.745V25.135H442.827V30.745H421.707ZM458.214 55.935C454.107 55.935 450.88 55.0733 448.534 53.35C446.224 51.59 445.014 49.17 444.904 46.09H451.779C451.889 47.1167 452.457 48.0517 453.484 48.895C454.51 49.7383 456.124 50.16 458.324 50.16C460.157 50.16 461.605 49.83 462.669 49.17C463.769 48.51 464.319 47.6117 464.319 46.475C464.319 45.485 463.897 44.6967 463.054 44.11C462.247 43.5233 460.854 43.1383 458.874 42.955L456.234 42.68C452.897 42.3133 450.33 41.36 448.534 39.82C446.737 38.28 445.839 36.2267 445.839 33.66C445.839 31.6067 446.352 29.8833 447.379 28.49C448.405 27.0967 449.817 26.0517 451.614 25.355C453.447 24.6217 455.537 24.255 457.884 24.255C461.55 24.255 464.52 25.0617 466.794 26.675C469.067 28.2883 470.259 30.6533 470.369 33.77H463.494C463.42 32.7433 462.907 31.8633 461.954 31.13C461 30.3967 459.625 30.03 457.829 30.03C456.215 30.03 454.969 30.3417 454.089 30.965C453.209 31.5883 452.769 32.395 452.769 33.385C452.769 34.3383 453.117 35.0717 453.814 35.585C454.547 36.0983 455.72 36.4467 457.334 36.63L459.974 36.905C463.494 37.2717 466.244 38.2433 468.224 39.82C470.24 41.3967 471.249 43.5233 471.249 46.2C471.249 48.18 470.699 49.9033 469.599 51.37C468.535 52.8 467.032 53.9183 465.089 54.725C463.145 55.5317 460.854 55.935 458.214 55.935Z" fill="#1D184E"/>
<line x1="474.96" y1="13.2642" x2="479.824" y2="2.03999" stroke="#5451FF" stroke-width="4" stroke-linecap="round"/>
<line x1="482.453" y1="20.5134" x2="492.533" y2="10.4333" stroke="#5451FF" stroke-width="4" stroke-linecap="round"/>
<line x1="487.003" y1="27.4425" x2="497.975" y2="25.2481" stroke="#5451FF" stroke-width="4" stroke-linecap="round"/>
</svg>
